PathFileType	4	(X/Y/Z)	/Users/itak/Documents/Research/Walk-IL/dataset/trc/00487_00167.trc
DataRate	CameraRate	NumFrames	NumMarkers	Units	OrigDataRate	OrigDataStartFrame	OrigNumFrames
100.000000	100.000000	4	53	mm	100.000000	322	516
Frame#	Time	RPSI			LPSI			L3			STRN			T10			C7			CLAV			RBAK			LBAK			LSHO			LUPA			LAEL			LAOL			LWTS			LWPS			LFRA			LIFD			LHPS			LHTS			RSHO			RUPA			RAEL			RAOL			RWTS			RWPS			RFRA			RIFD			RHTS			RHPS			RBHD			LFHD			RFHD			LBHD			LHIP			RHIP			RASI			LASI			LKNE			LTHI			LANK			LTIP			LTOE			LMT1			LMT5			LHEE			RKNE			RTHI			RANK			RTIP			RTOE			RMT1			RMT5			RHEE			
		X1	Y1	Z1	X2	Y2	Z2	X3	Y3	Z3	X4	Y4	Z4	X5	Y5	Z5	X6	Y6	Z6	X7	Y7	Z7	X8	Y8	Z8	X9	Y9	Z9	X10	Y10	Z10	X11	Y11	Z11	X12	Y12	Z12	X13	Y13	Z13	X14	Y14	Z14	X15	Y15	Z15	X16	Y16	Z16	X17	Y17	Z17	X18	Y18	Z18	X19	Y19	Z19	X20	Y20	Z20	X21	Y21	Z21	X22	Y22	Z22	X23	Y23	Z23	X24	Y24	Z24	X25	Y25	Z25	X26	Y26	Z26	X27	Y27	Z27	X28	Y28	Z28	X29	Y29	Z29	X30	Y30	Z30	X31	Y31	Z31	X32	Y32	Z32	X33	Y33	Z33	X34	Y34	Z34	X35	Y35	Z35	X36	Y36	Z36	X37	Y37	Z37	X38	Y38	Z38	X39	Y39	Z39	X40	Y40	Z40	X41	Y41	Z41	X42	Y42	Z42	X43	Y43	Z43	X44	Y44	Z44	X45	Y45	Z45	X46	Y46	Z46	X47	Y47	Z47	X48	Y48	Z48	X49	Y49	Z49	X50	Y50	Z50	X51	Y51	Z51	X52	Y52	Z52	X53	Y53	Z53	

323	3.22	319.5085144042969	941.9439697265625	-191.3600769042969	177.9403076171875	943.4542846679688	-207.4692687988281	263.2479858398438	1039.936401367188	-214.9409332275391	278.6710205078125	1236.453369140625	-484.0252990722656	259.685791015625	1164.190673828125	-198.8071746826172	278.7910461425781	1434.72119140625	-262.2137451171875	273.6514282226562	1348.922607421875	-446.8192138671875	368.7965087890625	1311.43798828125	-195.1917266845703	177.4392852783203	1387.0244140625	-234.6341552734375	102.7380447387695	1407.567993164062	-341.2965087890625	1.801056265830994	1289.00146484375	-333.5841674804688	-37.47830581665039	1077.238525390625	-344.9203491210938	28.69582939147949	1066.36572265625	-264.7081604003906	-20.44064331054688	856.0516357421875	-381.110107421875	-78.25222778320312	863.013916015625	-334.868408203125	-57.03736877441406	989.8369750976562	-349.7233276367188	-58.23122024536133	701.392333984375	-339.0719604492188	-92.36650848388672	787.5919799804688	-324.4091491699219	-44.57015991210938	769.050048828125	-374.845458984375	441.3303833007812	1400.483642578125	-320.8197937011719	515.4998168945312	1340.64501953125	-298.56787109375	586.8367309570312	1058.034301757812	-302.836181640625	543.5736694335938	1034.833862304688	-255.7252197265625	553.2039184570312	866.4686889648438	-430.0365905761719	609.0872192382812	844.909423828125	-365.3401184082031	599.3036499023438	1000.612426757812	-311.8419494628906	564.607177734375	713.7854614257812	-455.4493713378906	568.3843994140625	774.5432739257812	-460.0882568359375	608.3428344726562	760.3348388671875	-395.2537841796875	364.9022521972656	1635.965576171875	-375.8617553710938	204.6450500488281	1624.71533203125	-505.9872741699219	334.5882873535156	1630.659545898438	-510.3048706054688	189.3702545166016	1635.291381835938	-353.6060180664062	70.16374969482422	844.1800537109375	-350.4937133789062	466.6306457519531	844.2068481445312	-306.3242797851562	413.3559875488281	891.4555053710938	-408.9442138671875	159.045166015625	879.0863037109375	-443.204345703125	97.49901580810547	426.5524291992188	-311.4267578125	87.34239196777344	577.2223510742188	-360.2750244140625	40.65551376342773	77.96753692626953	-72.29734802246094	67.86616516113281	287.2954406738281	-243.0439300537109	190.9744720458984	38.41244506835938	-257.6979064941406	185.8470764160156	52.20297241210938	-179.2894897460938	81.01805114746094	43.25004577636719	-215.4452362060547	89.01235198974609	101.5420074462891	-14.89381980895996	457.6672973632812	463.9496765136719	-418.8296203613281	485.3117370605469	722.5088500976562	-374.6595764160156	470.2345886230469	32.62275314331055	-456.4660034179688	472.3237609863281	328.1065368652344	-449.6548461914062	434.1878662109375	57.47159576416016	-675.4727783203125	393.7385559082031	58.8693962097168	-612.21435546875	499.3530883789062	38.49679183959961	-587.5064086914062	421.46484375	27.03751373291016	-393.953125	
324	3.23	323.8516235351562	944.2205810546875	-196.3255310058594	182.2669677734375	945.830078125	-211.7218933105469	267.9788208007812	1042.140991210938	-219.5919647216797	282.4303283691406	1238.676513671875	-488.5106201171875	265.0040893554688	1166.298461914062	-203.1026763916016	284.7388305664062	1436.6201171875	-266.676025390625	278.0318298339844	1351.1220703125	-451.1950073242188	374.8782348632812	1313.118530273438	-200.5033874511719	183.564208984375	1389.383422851562	-238.4940338134766	108.2405853271484	1410.690551757812	-344.5551147460938	6.511704444885254	1293.010620117188	-335.7350769042969	-32.70638275146484	1081.05224609375	-345.0469665527344	35.22734832763672	1070.227416992188	-266.279052734375	-16.42376899719238	859.8419799804688	-381.5621337890625	-73.36538696289062	866.7153930664062	-334.0376892089844	-52.41418838500977	993.6272583007812	-349.3854370117188	-53.27477264404297	705.0948486328125	-338.37109375	-86.84933471679688	791.2166137695312	-323.24560546875	-40.53720092773438	772.6038818359375	-374.5805969238281	446.6871337890625	1402.18017578125	-326.4760131835938	521.0142211914062	1342.302490234375	-304.9701232910156	590.7175903320312	1059.35107421875	-309.6630554199219	547.4041748046875	1036.759643554688	-262.2705078125	556.951171875	865.3483276367188	-433.7924499511719	612.6985473632812	845.1431274414062	-368.529296875	603.1187133789062	1001.827941894531	-317.8907775878906	568.4839477539062	712.111083984375	-455.8782653808594	572.3087768554688	772.7597045898438	-461.8773193359375	612.0436401367188	760.0089721679688	-396.5992126464844	370.890380859375	1637.36083984375	-380.2483825683594	210.1253051757812	1627.204956054688	-509.8562316894531	340.0908203125	1632.630859375	-514.60986328125	195.4541931152344	1637.334228515625	-357.4025573730469	74.01427459716797	845.985595703125	-354.4373779296875	470.2781982421875	845.6990356445312	-311.643798828125	416.6873168945312	893.1168823242188	-413.9453125	162.3666687011719	881.3359375	-447.3175354003906	99.45603179931641	427.4815368652344	-320.4257507324219	90.16558837890625	578.7727661132812	-367.9145202636719	40.58783721923828	82.83849334716797	-75.00936889648438	68.71059417724609	289.369384765625	-249.4915618896484	190.8714141845703	38.44368362426758	-257.8544616699219	185.7974090576172	53.04165267944336	-180.4652099609375	81.23078918457031	43.27712631225586	-216.4266052246094	88.98725128173828	108.1851577758789	-18.46376609802246	459.6954956054688	464.6908569335938	-421.2470397949219	488.081298828125	723.653564453125	-379.7206726074219	470.5484924316406	32.52123641967773	-456.3319091796875	473.8800048828125	328.2676086425781	-450.9640197753906	433.796142578125	57.53253555297852	-675.1256713867188	393.4886474609375	59.07681274414062	-611.7833862304688	499.1716918945312	38.66895294189453	-587.4573364257812	421.8548583984375	26.78853797912598	-393.7174987792969	
325	3.24	328.3512878417969	946.3450317382812	-201.185546875	186.71337890625	948.2064208984375	-215.7402801513672	272.8152770996094	1044.29833984375	-224.1343841552734	286.0601806640625	1240.751586914062	-492.89697265625	270.3872375488281	1168.346923828125	-207.3481140136719	290.6552734375	1438.444458007812	-271.1285095214844	282.30078125	1353.191772460938	-455.5247802734375	380.9465637207031	1314.73046875	-205.8464813232422	189.6400299072266	1391.673583984375	-242.3545989990234	113.7231292724609	1413.780883789062	-347.789794921875	11.11601161956787	1297.108764648438	-337.9715576171875	-28.01824188232422	1084.828247070312	-345.2156677246094	41.55938720703125	1074.064331054688	-267.854736328125	-12.12785243988037	863.669189453125	-382.3695068359375	-68.31682586669922	870.2185668945312	-333.5897216796875	-47.81096267700195	997.355712890625	-349.2145385742188	-47.50817489624023	708.6296997070312	-338.3740234375	-80.96440887451172	794.5556030273438	-322.52685546875	-36.02058029174805	776.1746215820312	-374.8852233886719	451.9610290527344	1403.81689453125	-332.1808776855469	526.4662475585938	1343.948608398438	-311.4143676757812	594.6285400390625	1060.677001953125	-316.4178466796875	551.3062744140625	1038.698486328125	-268.7305603027344	560.7022094726562	864.3062744140625	-437.5289611816406	616.322509765625	845.4519653320312	-371.7169494628906	606.9629516601562	1003.0625	-323.88623046875	572.228759765625	710.5123291015625	-456.12548828125	576.1431274414062	771.0278930664062	-463.5581359863281	615.6807250976562	759.7835693359375	-397.8709411621094	376.8204345703125	1638.6630859375	-384.5598754882812	215.5572357177734	1629.65869140625	-513.6387939453125	345.5199279785156	1634.546752929688	-518.8251953125	201.4732055664062	1639.27978515625	-361.1066589355469	77.85634613037109	847.8513793945312	-358.2052612304688	473.9100646972656	846.8759765625	-316.8247375488281	419.8997192382812	894.3731689453125	-418.8394165039062	165.6011352539062	883.5880126953125	-451.2015686035156	101.2842330932617	428.4039306640625	-329.9523010253906	92.85696411132812	580.3828735351562	-375.8802185058594	40.66624069213867	87.96407318115234	-78.03824615478516	69.43425750732422	291.5790710449219	-256.3427429199219	190.7783355712891	38.46772003173828	-257.9993591308594	185.7841033935547	53.98777770996094	-181.8109130859375	81.45429992675781	43.32584381103516	-217.5204467773438	89.16187286376953	115.1929473876953	-22.5297679901123	461.6589965820312	465.1472778320312	-423.2515258789062	490.7947387695312	724.39208984375	-384.2890930175781	470.8277587890625	32.43329620361328	-456.200927734375	475.3633422851562	328.3031311035156	-452.0677185058594	433.4787902832031	57.60163879394531	-674.8330078125	393.2827453613281	59.26773452758789	-611.4267578125	499.0008239746094	38.79440307617188	-587.4197998046875	422.1748046875	26.54604530334473	-393.5159912109375	
326	3.25	332.9706115722656	948.258544921875	-205.9251098632812	191.2366790771484	950.4500122070312	-219.5103912353516	277.758056640625	1046.350952148438	-228.5705718994141	289.5559387207031	1242.608154296875	-497.1908874511719	275.8488159179688	1170.28515625	-211.5536651611328	296.5538024902344	1440.14501953125	-275.5694885253906	286.4598693847656	1355.061401367188	-459.8176574707031	387.0091857910156	1316.22216796875	-211.2137145996094	195.6727905273438	1393.8408203125	-246.2022857666016	119.1764526367188	1416.741455078125	-350.9949951171875	15.65783882141113	1301.144287109375	-340.2549743652344	-23.42885398864746	1088.442749023438	-345.4653625488281	47.62681579589844	1077.751953125	-269.4286193847656	-7.599366188049316	867.3679809570312	-383.5438537597656	-63.1717529296875	873.416259765625	-333.5839538574219	-43.25203704833984	1000.904724121094	-349.2618103027344	-41.00205993652344	711.8881225585938	-339.0908508300781	-74.81069946289062	797.5111083984375	-322.2709045410156	-31.05433082580566	779.6333618164062	-375.777099609375	457.1649475097656	1405.312377929688	-337.9435119628906	531.8553466796875	1345.482177734375	-317.9039611816406	598.6110229492188	1061.913330078125	-323.0950622558594	555.3362426757812	1040.549682617188	-275.0932006835938	564.4367065429688	863.2918701171875	-441.2680053710938	619.9778442382812	845.7528686523438	-374.986572265625	610.8687744140625	1004.217468261719	-329.8418579101562	575.783935546875	708.9763793945312	-456.3274841308594	579.8333740234375	769.3340454101562	-465.2234497070312	619.2401123046875	759.5863037109375	-399.1988220214844	382.6903076171875	1639.83544921875	-388.7953186035156	220.9281616210938	1632.029663085938	-517.3228149414062	350.8592529296875	1636.369140625	-522.9456787109375	207.4261169433594	1641.078002929688	-364.7024841308594	81.65699768066406	849.6840209960938	-361.8008728027344	477.5086059570312	847.742431640625	-321.8425598144531	422.9869384765625	895.1998901367188	-423.61962890625	168.7518463134766	885.7705078125	-454.8565979003906	102.9695205688477	429.3020324707031	-339.9406433105469	95.36641693115234	582.0059814453125	-384.1275329589844	40.94729614257812	93.31490325927734	-81.39890289306641	70.07882690429688	293.89990234375	-263.5739135742188	190.6627655029297	38.47723007202148	-258.2068786621094	185.8422241210938	55.0657844543457	-183.3700714111328	81.67871856689453	43.41259384155273	-218.7119750976562	89.59064483642578	122.5085678100586	-27.10064888000488	463.5666198730469	465.3345031738281	-424.9113464355469	493.4858093261719	724.742919921875	-388.3579406738281	471.0468444824219	32.36015701293945	-456.0924682617188	476.7624206542969	328.2205200195312	-453.0229187011719	433.2256164550781	57.63390731811523	-674.610107421875	393.1162414550781	59.41148376464844	-611.1635131835938	498.8536071777344	38.87467575073242	-587.3963623046875	422.419677734375	26.33242607116699	-393.3602905273438	
